<svg xmlns="http://www.w3.org/2000/svg" viewBox="0 0 64 64" enable-background="new 0 0 64 64" style="height:36px">
  <path xmlns="http://www.w3.org/2000/svg" d="m44.564 39.39c-.626 0-1.247 0-1.873 0-.1 0-.162.035-.25.049-.099.014-.189.018-.285.058-.158.06-.289.154-.407.264-.024.021-.052.025-.075.051-4.522 4.408-10.447 5.414-16.09 2.511-3.03-1.558-2.78-2.932-6.02-2.932-1.327 0-1.822 1.538-1.018 2.459 7.315 8.443 19.726 8.443 27.05 0 .796-.922.305-2.46-1.022-2.46" fill="#fff"/>
  <path xmlns="http://www.w3.org/2000/svg" d="m27.76 29.776c-.224 0-4.31-1.568-8.436-1.568-3.686 0-7.403 1.568-8.436 1.568-.896 0-1.23-1.038-.688-1.658 4.936-5.698 13.309-5.698 18.248 0 .538.621.204 1.658-.688 1.658" fill="#fff" id="left_eye"/>
  <path xmlns="http://www.w3.org/2000/svg" d="m52.648 29.776c-.224 0-4.311-1.568-8.437-1.568-3.686 0-7.402 1.568-8.436 1.568-.896 0-1.23-1.038-.688-1.658 4.935-5.698 13.309-5.698 18.247 0 .54.621.206 1.658-.686 1.658" fill="#fff" id="right_eye"/>
  <g xmlns="http://www.w3.org/2000/svg">
    <g fill="#fff" id="ellipse_eye">
      <path d="m25.327 24.771c0 2.812-1.879 5.088-4.195 5.088-2.32 0-4.197-2.277-4.197-5.088 0-2.804 1.877-5.086 4.197-5.086 2.316 0 4.195 2.282 4.195 5.086"/>
      <path d="m47.27 24.771c0 2.812-1.879 5.088-4.197 5.088-2.319 0-4.194-2.277-4.194-5.088 0-2.804 1.875-5.086 4.194-5.086 2.318 0 4.197 2.282 4.197 5.086"/>
    </g>
  </g>
</svg>
